<svg xmlns="http://www.w3.org/2000/svg" width="900" height="520">
<rect width="100%" height="100%" fill="white"/>
<text x="450" y="32" text-anchor="middle" font-size="20" font-family="Arial">各廠三個月成本率趨勢</text>
<text x="450" y="58" text-anchor="middle" font-size="12" font-family="Arial">單位：%　資料截至：2026-09（資料檔未提供更新時間）</text>
<line x1="90" y1="430" x2="860" y2="430" stroke="#333"/>
<line x1="90" y1="90" x2="90" y2="430" stroke="#333"/>
<line x1="90" y1="430.0" x2="860" y2="430.0" stroke="#e5e7eb"/>
<text x="80" y="434.0" text-anchor="end" font-size="12" font-family="Arial">0.0</text>
<line x1="90" y1="362.0" x2="860" y2="362.0" stroke="#e5e7eb"/>
<text x="80" y="366.0" text-anchor="end" font-size="12" font-family="Arial">16.1</text>
<line x1="90" y1="294.0" x2="860" y2="294.0" stroke="#e5e7eb"/>
<text x="80" y="298.0" text-anchor="end" font-size="12" font-family="Arial">32.3</text>
<line x1="90" y1="226.0" x2="860" y2="226.0" stroke="#e5e7eb"/>
<text x="80" y="230.0" text-anchor="end" font-size="12" font-family="Arial">48.4</text>
<line x1="90" y1="158.0" x2="860" y2="158.0" stroke="#e5e7eb"/>
<text x="80" y="162.0" text-anchor="end" font-size="12" font-family="Arial">64.6</text>
<line x1="90" y1="90.0" x2="860" y2="90.0" stroke="#e5e7eb"/>
<text x="80" y="94.0" text-anchor="end" font-size="12" font-family="Arial">80.7</text>
<text x="90.0" y="458" text-anchor="middle" font-size="12" font-family="Arial">2026-07</text>
<text x="475.0" y="458" text-anchor="middle" font-size="12" font-family="Arial">2026-08</text>
<text x="860.0" y="458" text-anchor="middle" font-size="12" font-family="Arial">2026-09</text>
<polyline points="90.0,138.7 475.0,139.7 860.0,139.1" fill="none" stroke="#2563eb" stroke-width="3"/>
<circle cx="90.0" cy="138.7" r="4" fill="#2563eb"/>
<circle cx="475.0" cy="139.7" r="4" fill="#2563eb"/>
<circle cx="860.0" cy="139.1" r="4" fill="#2563eb"/>
<rect x="90" y="485" width="12" height="12" fill="#2563eb"/>
<text x="108" y="496" font-size="12" font-family="Arial">Taichung</text>
<polyline points="90.0,146.6 475.0,146.7 860.0,111.1" fill="none" stroke="#dc2626" stroke-width="3"/>
<circle cx="90.0" cy="146.6" r="4" fill="#dc2626"/>
<circle cx="475.0" cy="146.7" r="4" fill="#dc2626"/>
<circle cx="860.0" cy="111.1" r="4" fill="#dc2626"/>
<rect x="265" y="485" width="12" height="12" fill="#dc2626"/>
<text x="283" y="496" font-size="12" font-family="Arial">Tainan</text>
<polyline points="90.0,146.4 475.0,148.5 860.0,147.8" fill="none" stroke="#16a34a" stroke-width="3"/>
<circle cx="90.0" cy="146.4" r="4" fill="#16a34a"/>
<circle cx="475.0" cy="148.5" r="4" fill="#16a34a"/>
<circle cx="860.0" cy="147.8" r="4" fill="#16a34a"/>
<rect x="440" y="485" width="12" height="12" fill="#16a34a"/>
<text x="458" y="496" font-size="12" font-family="Arial">Taoyuan</text>
</svg>